<svg width="45" height="45" viewBox="0 0 45 45" fill="none" xmlns="http://www.w3.org/2000/svg">
<g clip-path="url(#clip0_639_6976)">
<path d="M9.0332 9H36.0415V36.0083H9.0332V9Z" fill="#003399"/>
<path d="M22.6676 13.8679L22.8388 14.5521L23.3798 14.5577C23.4498 14.5585 23.4788 14.6776 23.4225 14.7331L22.9873 15.1616L23.1505 15.8493C23.1716 15.9382 23.0956 16.012 23.0386 15.9576L22.5985 15.5382L22.1584 15.9576C22.1015 16.0119 22.0254 15.9383 22.0465 15.8493L22.2097 15.1616L21.7745 14.7331C21.7181 14.6776 21.7472 14.5585 21.8172 14.5577L22.3582 14.5521L22.5293 13.8679C22.5514 13.7793 22.6455 13.7793 22.6676 13.8679Z" fill="#FFE15A"/>
<path d="M22.6676 28.5589L22.8388 29.2432L23.3798 29.2488C23.4498 29.2495 23.4788 29.3686 23.4225 29.4242L22.9873 29.8526L23.1505 30.5403C23.1716 30.6293 23.0956 30.703 23.0386 30.6487L22.5985 30.2292L22.1584 30.6487C22.1015 30.703 22.0254 30.6293 22.0465 30.5403L22.2097 29.8526L21.7745 29.4242C21.7181 29.3686 21.7472 29.2495 21.8172 29.2488L22.3582 29.2432L22.5293 28.5589C22.5514 28.4703 22.6455 28.4703 22.6676 28.5589Z" fill="#FFE15A"/>
<path d="M28.1768 21.2137L28.348 21.898L28.8889 21.9036C28.959 21.9043 28.988 22.0234 28.9317 22.0789L28.4965 22.5074L28.6596 23.1951C28.6808 23.2841 28.6047 23.3578 28.5477 23.3035L28.1076 22.884L27.6676 23.3035C27.6106 23.3578 27.5345 23.2841 27.5557 23.1951L27.7188 22.5074L27.2836 22.0789C27.2273 22.0234 27.2563 21.9043 27.3264 21.9036L27.8673 21.898L28.0385 21.2137C28.0606 21.1251 28.1546 21.1251 28.1768 21.2137Z" fill="#FFE15A"/>
<path d="M17.1584 21.2137L17.3295 21.898L17.8705 21.9036C17.9406 21.9043 17.9696 22.0234 17.9132 22.0789L17.478 22.5074L17.6412 23.1951C17.6623 23.2841 17.5863 23.3578 17.5293 23.3035L17.0892 22.884L16.6491 23.3035C16.5922 23.3578 16.5161 23.2841 16.5372 23.1951L16.7004 22.5074L16.2652 22.0789C16.2089 22.0234 16.2379 21.9043 16.3079 21.9036L16.8489 21.898L17.0201 21.2137C17.0422 21.1251 17.1363 21.1251 17.1584 21.2137Z" fill="#FFE15A"/>
<path d="M17.9854 17.3776L18.1566 18.0618L18.6975 18.0675C18.7676 18.0682 18.7966 18.1873 18.7403 18.2428L18.3051 18.6713L18.4682 19.359C18.4893 19.4479 18.4133 19.5217 18.3563 19.4673L17.9162 19.0479L17.4762 19.4673C17.4192 19.5216 17.3431 19.448 17.3643 19.359L17.5274 18.6713L17.0922 18.2428C17.0359 18.1873 17.0649 18.0682 17.135 18.0675L17.6759 18.0618L17.8471 17.3776C17.8692 17.289 17.9632 17.289 17.9854 17.3776Z" fill="#FFE15A"/>
<path d="M27.5275 24.7228L27.6987 25.4071L28.2396 25.4127C28.3097 25.4134 28.3387 25.5325 28.2824 25.588L27.8472 26.0165L28.0103 26.7042C28.0315 26.7932 27.9554 26.8669 27.8984 26.8126L27.4584 26.3931L27.0183 26.8126C26.9613 26.8668 26.8853 26.7932 26.9064 26.7042L27.0695 26.0165L26.6343 25.588C26.578 25.5325 26.607 25.4134 26.6771 25.4127L27.218 25.4071L27.3892 24.7228C27.4114 24.6342 27.5054 24.6342 27.5275 24.7228Z" fill="#FFE15A"/>
<path d="M25.5111 14.6891L25.6823 15.3733L26.2233 15.3789C26.2933 15.3796 26.3223 15.4988 26.266 15.5543L25.8308 15.9828L25.994 16.6704C26.0151 16.7594 25.9391 16.8332 25.8821 16.7788L25.442 16.3593L25.0019 16.7788C24.945 16.8331 24.8689 16.7595 24.89 16.6704L25.0532 15.9828L24.618 15.5543C24.5617 15.4988 24.5907 15.3796 24.6607 15.3789L25.2017 15.3733L25.3729 14.6891C25.3949 14.6005 25.4889 14.6005 25.5111 14.6891Z" fill="#FFE15A"/>
<path d="M20.0017 27.4113L20.1729 28.0956L20.7139 28.1012C20.7839 28.1019 20.8129 28.2211 20.7566 28.2766L20.3214 28.7051L20.4846 29.3927C20.5057 29.4817 20.4297 29.5554 20.3727 29.5011L19.9326 29.0816L19.4925 29.5011C19.4356 29.5554 19.3595 29.4818 19.3806 29.3927L19.5438 28.7051L19.1086 28.2766C19.0523 28.2211 19.0813 28.1019 19.1513 28.1012L19.6923 28.0956L19.8635 27.4113C19.8856 27.3228 19.9796 27.3228 20.0017 27.4113Z" fill="#FFE15A"/>
<path d="M27.3892 17.3776L27.218 18.0618L26.6771 18.0675C26.607 18.0682 26.578 18.1873 26.6343 18.2428L27.0695 18.6713L26.9064 19.359C26.8853 19.4479 26.9613 19.5217 27.0183 19.4673L27.4584 19.0479L27.8984 19.4673C27.9554 19.5216 28.0315 19.448 28.0103 19.359L27.8472 18.6713L28.2824 18.2428C28.3387 18.1873 28.3097 18.0682 28.2396 18.0675L27.6987 18.0618L27.5275 17.3776C27.5054 17.289 27.4114 17.289 27.3892 17.3776Z" fill="#FFE15A"/>
<path d="M17.8471 24.7228L17.6759 25.4071L17.135 25.4127C17.0649 25.4134 17.0359 25.5325 17.0922 25.588L17.5274 26.0165L17.3643 26.7042C17.3431 26.7932 17.4192 26.8669 17.4762 26.8126L17.9162 26.3931L18.3563 26.8126C18.4133 26.8668 18.4893 26.7932 18.4682 26.7042L18.3051 26.0165L18.7403 25.588C18.7966 25.5325 18.7676 25.4134 18.6975 25.4127L18.1566 25.4071L17.9854 24.7228C17.9632 24.6342 17.8692 24.6342 17.8471 24.7228Z" fill="#FFE15A"/>
<path d="M19.8635 14.6891L19.6923 15.3733L19.1513 15.3789C19.0813 15.3796 19.0523 15.4988 19.1086 15.5543L19.5438 15.9828L19.3806 16.6704C19.3595 16.7594 19.4355 16.8332 19.4925 16.7788L19.9326 16.3593L20.3727 16.7788C20.4296 16.8331 20.5057 16.7595 20.4846 16.6704L20.3214 15.9828L20.7566 15.5543C20.8129 15.4988 20.7839 15.3796 20.7139 15.3789L20.1729 15.3733L20.0017 14.6891C19.9796 14.6005 19.8856 14.6005 19.8635 14.6891Z" fill="#FFE15A"/>
<path d="M25.3726 27.4113L25.2014 28.0956L24.6605 28.1012C24.5904 28.1019 24.5614 28.2211 24.6177 28.2766L25.0529 28.7051L24.8898 29.3927C24.8687 29.4817 24.9447 29.5554 25.0017 29.5011L25.4418 29.0816L25.8818 29.5011C25.9388 29.5554 26.0149 29.4818 25.9937 29.3927L25.8306 28.7051L26.2658 28.2766C26.3221 28.2211 26.2931 28.1019 26.223 28.1012L25.6821 28.0956L25.5109 27.4113C25.4887 27.3228 25.3948 27.3228 25.3726 27.4113Z" fill="#FFE15A"/>
</g>
<rect x="4.83191" y="4.79871" width="35.4109" height="35.4109" rx="17.7054" stroke="white" stroke-width="8.40259"/>
<defs>
<clipPath id="clip0_639_6976">
<rect x="9.0332" y="9" width="27.0083" height="27.0083" rx="13.5042" fill="white"/>
</clipPath>
</defs>
</svg>
