<svg width="819" height="1234" viewBox="0 0 819 1234" fill="none" xmlns="http://www.w3.org/2000/svg">
<g opacity="0.5">
<path d="M-121.33 954.344L49.4497 787.478C62.2622 774.957 67.3693 751.571 61.8452 730.72L6.6969 522.52C1.17275 501.669 -13.5673 488.682 -29.0777 491.017L-235.819 522.098L-121.325 954.338L-121.33 954.344Z" fill="url(#paint0_linear_292_3914)" fill-opacity="0.5"/>
<path d="M-36.2927 909.31L171.862 705.92C187.478 690.663 193.705 662.147 186.972 636.737L119.754 382.966C113.022 357.543 95.0515 341.722 76.1455 344.563L-175.852 382.451L-36.2975 909.304L-36.2927 909.31Z" fill="url(#paint1_linear_292_3914)" fill-opacity="0.5"/>
<path d="M48.7465 864.275L294.286 624.36C312.71 606.362 320.051 572.735 312.105 542.746L232.814 243.411C224.873 213.428 203.672 194.761 181.375 198.114L-115.874 242.803L48.7417 864.269L48.7465 864.275Z" fill="url(#paint2_linear_292_3914)" fill-opacity="0.5"/>
<path d="M133.789 819.235L416.704 542.795C437.927 522.054 446.392 483.304 437.238 448.756L345.877 103.85C336.723 69.3014 312.306 47.7939 286.609 51.6588L-55.8925 103.162L133.785 819.241L133.789 819.235Z" fill="url(#paint3_linear_292_3914)" fill-opacity="0.5"/>
<path d="M218.826 774.201L539.126 461.237C563.153 437.761 572.732 393.888 562.374 354.773L458.943 -35.704C448.585 -74.8181 420.934 -99.1655 391.846 -94.7884L4.08821 -36.4775L218.822 774.208L218.826 774.201Z" fill="url(#paint4_linear_292_3914)" fill-opacity="0.5"/>
<path d="M303.864 729.166L661.539 379.678C688.374 353.46 699.073 304.47 687.501 260.79L572.001 -175.245C560.43 -218.925 529.553 -246.113 497.07 -241.23L64.0696 -176.132L303.869 729.16L303.864 729.166Z" fill="url(#paint5_linear_292_3914)" fill-opacity="0.5"/>
</g>
<defs>
<linearGradient id="paint0_linear_292_3914" x1="34.0113" y1="626.707" x2="-192.501" y2="686.72" gradientUnits="userSpaceOnUse">
<stop stop-color="#1A1A1A"/>
<stop offset="0.14" stop-color="#5F5F5F" stop-opacity="0.71"/>
<stop offset="0.28" stop-color="#919191" stop-opacity="0.45"/>
<stop offset="0.41" stop-color="#BFBFBF" stop-opacity="0.26"/>
<stop offset="0.55" stop-color="#DADADA" stop-opacity="0.11"/>
<stop offset="0.68" stop-color="#F9F9F9" stop-opacity="0.03"/>
<stop offset="0.79" stop-color="#F1F1F1" stop-opacity="0"/>
</linearGradient>
<linearGradient id="paint1_linear_292_3914" x1="153.047" y1="509.954" x2="-123.045" y2="583.104" gradientUnits="userSpaceOnUse">
<stop stop-color="#1A1A1A"/>
<stop offset="0.14" stop-color="#5F5F5F" stop-opacity="0.71"/>
<stop offset="0.28" stop-color="#919191" stop-opacity="0.45"/>
<stop offset="0.41" stop-color="#BFBFBF" stop-opacity="0.26"/>
<stop offset="0.55" stop-color="#DADADA" stop-opacity="0.11"/>
<stop offset="0.68" stop-color="#F9F9F9" stop-opacity="0.03"/>
<stop offset="0.79" stop-color="#F1F1F1" stop-opacity="0"/>
</linearGradient>
<linearGradient id="paint2_linear_292_3914" x1="272.087" y1="393.209" x2="-53.5835" y2="479.497" gradientUnits="userSpaceOnUse">
<stop stop-color="#1A1A1A"/>
<stop offset="0.14" stop-color="#5F5F5F" stop-opacity="0.71"/>
<stop offset="0.28" stop-color="#919191" stop-opacity="0.45"/>
<stop offset="0.41" stop-color="#BFBFBF" stop-opacity="0.26"/>
<stop offset="0.55" stop-color="#DADADA" stop-opacity="0.11"/>
<stop offset="0.68" stop-color="#F9F9F9" stop-opacity="0.03"/>
<stop offset="0.79" stop-color="#F1F1F1" stop-opacity="0"/>
</linearGradient>
<linearGradient id="paint3_linear_292_3914" x1="391.128" y1="276.453" x2="15.876" y2="375.873" gradientUnits="userSpaceOnUse">
<stop stop-color="#1A1A1A"/>
<stop offset="0.14" stop-color="#5F5F5F" stop-opacity="0.71"/>
<stop offset="0.28" stop-color="#919191" stop-opacity="0.45"/>
<stop offset="0.41" stop-color="#BFBFBF" stop-opacity="0.26"/>
<stop offset="0.55" stop-color="#DADADA" stop-opacity="0.11"/>
<stop offset="0.68" stop-color="#F9F9F9" stop-opacity="0.03"/>
<stop offset="0.79" stop-color="#F1F1F1" stop-opacity="0"/>
</linearGradient>
<linearGradient id="paint4_linear_292_3914" x1="510.174" y1="159.703" x2="85.3378" y2="272.258" gradientUnits="userSpaceOnUse">
<stop stop-color="#1A1A1A"/>
<stop offset="0.14" stop-color="#5F5F5F" stop-opacity="0.71"/>
<stop offset="0.28" stop-color="#919191" stop-opacity="0.45"/>
<stop offset="0.41" stop-color="#BFBFBF" stop-opacity="0.26"/>
<stop offset="0.55" stop-color="#DADADA" stop-opacity="0.11"/>
<stop offset="0.68" stop-color="#F9F9F9" stop-opacity="0.03"/>
<stop offset="0.79" stop-color="#F1F1F1" stop-opacity="0"/>
</linearGradient>
<linearGradient id="paint5_linear_292_3914" x1="629.206" y1="42.9586" x2="154.8" y2="168.65" gradientUnits="userSpaceOnUse">
<stop stop-color="#1A1A1A"/>
<stop offset="0.14" stop-color="#5F5F5F" stop-opacity="0.71"/>
<stop offset="0.28" stop-color="#919191" stop-opacity="0.45"/>
<stop offset="0.41" stop-color="#BFBFBF" stop-opacity="0.26"/>
<stop offset="0.55" stop-color="#DADADA" stop-opacity="0.11"/>
<stop offset="0.68" stop-color="#F9F9F9" stop-opacity="0.03"/>
<stop offset="0.79" stop-color="#F1F1F1" stop-opacity="0"/>
</linearGradient>
</defs>
</svg>
