<svg width="45" height="45" viewBox="0 0 45 45" fill="none" xmlns="http://www.w3.org/2000/svg">
<g clip-path="url(#clip0_639_7362)">
<path d="M9.0415 9H36.0498V36.0083H9.0415V9Z" fill="#012169"/>
<path d="M12.2065 9L22.5035 19.1844L32.7582 9H36.0498V12.4886L25.9217 22.5604L36.0498 32.576V36.0083H32.6738L22.5457 25.9365L12.4597 36.0083H9.0415V32.6323L19.1274 22.6167L9.0415 12.6011V9H12.2065Z" fill="white"/>
<path d="M26.9345 24.8111L36.0498 33.7576V36.0083L24.6135 24.8111H26.9345ZM19.1696 25.9365L19.4228 27.9058L11.3203 36.0083H9.0415L19.1696 25.9365ZM36.0498 9V9.1688L25.5419 19.7471L25.6263 17.2713L33.9398 9H36.0498ZM9.0415 9L19.1274 18.903H16.5954L9.0415 11.3632V9Z" fill="#C8102E"/>
<path d="M19.2118 9V36.0083H25.9639V9H19.2118ZM9.0415 18.0028V27.0055H36.0498V18.0028H9.0415Z" fill="white"/>
<path d="M9.0415 19.8596V25.2613H36.0498V19.8596H9.0415ZM20.5622 9V36.0083H24.6135V9H20.5622Z" fill="#C8102E"/>
</g>
<rect x="4.84021" y="4.79871" width="35.4109" height="35.4109" rx="17.7054" stroke="white" stroke-width="8.40259"/>
<defs>
<clipPath id="clip0_639_7362">
<rect x="9.0415" y="9" width="27.0083" height="27.0083" rx="13.5042" fill="white"/>
</clipPath>
</defs>
</svg>
