<svg width="45" height="45" viewBox="0 0 45 45" fill="none" xmlns="http://www.w3.org/2000/svg">
<g clip-path="url(#clip0_639_6975)">
<path fill-rule="evenodd" clip-rule="evenodd" d="M9.0249 9H47.5117V11.0819H9.0249V9ZM9.0249 13.1582H47.5117V15.24H9.0249V13.1582ZM9.0249 17.3107H47.5117V19.3926H9.0249V17.3107ZM9.0249 21.4632H47.5117V23.5451H9.0249V21.4632ZM9.0249 25.627H47.5117V27.6976H9.0249V25.627ZM9.0249 29.7739H47.5117V31.8558H9.0249V29.7739ZM9.0249 33.9264H47.5117V36.0083H9.0249V33.9264Z" fill="#BD3D44"/>
<path fill-rule="evenodd" clip-rule="evenodd" d="M9.0249 11.0819H47.5117V13.1582H9.0249V11.0819ZM9.0249 15.2344H47.5117V17.3107H9.0249V15.2344ZM9.0249 19.387H47.5117V21.4689H9.0249V19.387ZM9.0249 23.5451H47.5117V25.627H9.0249V23.5451ZM9.0249 27.6976H47.5117V29.7795H9.0249V27.6976ZM9.0249 31.8502H47.5117V33.9321H9.0249V31.8502Z" fill="white"/>
<path fill-rule="evenodd" clip-rule="evenodd" d="M9.0249 9H24.4196V23.5451H9.0249V9Z" fill="#192F5D"/>
<path fill-rule="evenodd" clip-rule="evenodd" d="M10.3078 9.61896L10.4513 10.1985H10.8986L10.5357 10.553L10.6749 11.1325L10.3078 10.7724L9.94487 11.1269L10.0799 10.553L9.71277 10.1985H10.1728L10.3078 9.61896ZM12.8736 9.61896L13.0128 10.1985H13.4686L13.1015 10.553L13.2365 11.1325L12.8736 10.7724L12.5064 11.1269L12.6457 10.553L12.2828 10.1985H12.7301L12.8736 9.61896ZM15.4394 9.61896L15.5786 10.1985H16.0302L15.6673 10.553L15.8065 11.1325L15.4394 10.7724L15.0722 11.1269L15.2115 10.553L14.8443 10.1985H15.3001L15.4394 9.61896ZM18.0052 9.61896L18.1444 10.1985H18.6002L18.233 10.553L18.3723 11.1325L18.0052 10.7724L17.638 11.1269L17.7815 10.553L17.4101 10.1985H17.8617L18.0052 9.61896ZM20.571 9.61896L20.7102 10.1985H21.1618L20.7988 10.553L20.9381 11.1325L20.571 10.7724L20.2038 11.1269L20.3431 10.553L19.9801 10.1985H20.4317L20.571 9.61896ZM23.1367 9.61896L23.276 10.1985H23.7318L23.3604 10.553L23.5039 11.1325L23.1367 10.7724L22.7696 11.1269L22.9131 10.553L22.5417 10.1985H22.9975L23.1367 9.61896ZM11.5907 11.0819L11.73 11.6558H12.1899L11.8228 12.0047L11.9578 12.5842L11.5991 12.2298L11.232 12.5842L11.3628 12.0047L11.0083 11.6558H11.4599L11.5907 11.0819ZM14.1565 11.0819L14.3 11.6558H14.7515L14.3801 12.0047L14.5236 12.5842L14.1565 12.2298L13.7893 12.5842L13.9286 12.0047L13.5615 11.6558H14.0172L14.1565 11.0819ZM16.7223 11.0819L16.8615 11.6558H17.3173L16.9502 12.0047L17.0894 12.5842L16.7223 12.2298L16.3551 12.5842L16.4944 12.0047L16.1315 11.6558H16.5788L16.7223 11.0819ZM19.2881 11.0819L19.4315 11.6558H19.8831L19.5117 12.0047L19.6552 12.5842L19.2881 12.2298L18.9251 12.5842L19.0602 12.0047L18.693 11.6558H19.153L19.2881 11.0819ZM21.8538 11.0819L21.9931 11.6558H22.4489L22.0817 12.0047L22.221 12.5842L21.8538 12.2298L21.4867 12.5842L21.626 12.0047L21.263 11.6558H21.7146L21.8538 11.0819ZM10.3078 12.5224L10.4513 13.1075H10.8986L10.5357 13.462L10.6749 14.0359L10.3078 13.6815L9.94487 14.0359L10.0799 13.462L9.71277 13.1075H10.1728L10.3078 12.5224ZM12.8736 12.5224L13.0128 13.1075H13.4686L13.1015 13.462L13.2365 14.0359L12.8736 13.6815L12.5064 14.0359L12.6457 13.4564L12.2828 13.1019H12.7301L12.8736 12.5224ZM15.4394 12.5224L15.5786 13.1019H16.0302L15.6673 13.4564L15.8065 14.0303L15.4394 13.6758L15.0722 14.0303L15.2115 13.4508L14.8443 13.0963H15.3001L15.4394 12.5224ZM18.0052 12.5224L18.1444 13.1019H18.6002L18.233 13.4564L18.3723 14.0303L18.0052 13.6758L17.638 14.0303L17.7815 13.4508L17.4101 13.0963H17.8617L18.0052 12.5224ZM20.571 12.5224L20.7102 13.1019H21.1618L20.7988 13.4564L20.9381 14.0303L20.571 13.6758L20.2038 14.0303L20.3431 13.4508L19.9801 13.0963H20.4317L20.571 12.5224ZM23.1367 12.5224L23.276 13.1019H23.7318L23.3604 13.4564L23.5039 14.0303L23.1367 13.6758L22.7696 14.0303L22.9131 13.4508L22.5417 13.0963H22.9975L23.1367 12.5224ZM11.5907 13.9853L11.73 14.5592H12.1899L11.8228 14.9137L11.9621 15.4933L11.5949 15.1332L11.2278 15.4876L11.367 14.9137L11.0041 14.5592H11.4556L11.5907 13.9853ZM14.1565 13.9853L14.3 14.5592H14.7515L14.3801 14.9137L14.5236 15.4933L14.1565 15.1332L13.7893 15.4876L13.9286 14.9137L13.5615 14.5592H14.0172L14.1565 13.9853ZM16.7223 13.9853L16.8615 14.5592H17.3173L16.9502 14.9137L17.0894 15.4933L16.7223 15.1332L16.3551 15.4876L16.4944 14.9137L16.1315 14.5592H16.5788L16.7223 13.9853ZM19.2881 13.9853L19.4315 14.5592H19.8831L19.5159 14.9137L19.6552 15.4933L19.2881 15.1332L18.9251 15.4876L19.0602 14.9137L18.693 14.5592H19.153L19.2881 13.9853ZM21.8538 13.9853L21.9931 14.5592H22.4489L22.0817 14.9137L22.221 15.4933L21.8538 15.1332L21.4867 15.4876L21.626 14.9137L21.263 14.5592H21.7146L21.8538 13.9853ZM10.3078 15.4426L10.4513 16.0166H10.8986L10.5357 16.371L10.6749 16.9506L10.3078 16.5905L9.94487 16.945L10.0799 16.371L9.71277 16.0166H10.1728L10.3078 15.4426ZM12.8736 15.4426L13.0128 16.0166H13.4686L13.1015 16.371L13.2365 16.945L12.8736 16.5905L12.5064 16.945L12.6457 16.371L12.2828 16.0166H12.7301L12.8736 15.4426ZM15.4394 15.4426L15.5786 16.0166H16.0302L15.6673 16.371L15.8065 16.9506L15.4394 16.5905L15.0722 16.945L15.2115 16.371L14.8443 16.0166H15.3001L15.4394 15.4426ZM18.0052 15.4426L18.1444 16.0166H18.6002L18.233 16.371L18.3723 16.9506L18.0052 16.5905L17.638 16.945L17.7815 16.371L17.4101 16.0166H17.8617L18.0052 15.4426ZM20.571 15.4426L20.7102 16.0166H21.1618L20.7988 16.371L20.9381 16.9506L20.571 16.5905L20.2038 16.945L20.3431 16.371L19.9801 16.0166H20.4317L20.571 15.4426ZM23.1367 15.4426L23.276 16.0166H23.7318L23.3604 16.371L23.5039 16.9506L23.1367 16.5905L22.7696 16.945L22.9089 16.371L22.5375 16.0166H22.9933L23.1367 15.4426ZM11.5907 16.8943L11.73 17.4739H12.1899L11.8228 17.8227L11.9621 18.4023L11.5949 18.0422L11.2278 18.4023L11.367 17.8227L11.0041 17.4682H11.4556L11.5907 16.8943ZM14.1565 16.8943L14.3 17.4739H14.7515L14.3801 17.8227L14.5236 18.4023L14.1565 18.0422L13.7893 18.4023L13.9286 17.8227L13.5615 17.4682H14.0172L14.1565 16.8943ZM16.7223 16.8943L16.8615 17.4739H17.3173L16.9502 17.8227L17.0894 18.4023L16.7223 18.0422L16.3551 18.4023L16.4944 17.8227L16.1315 17.4682H16.5788L16.7223 16.8943ZM19.2881 16.8943L19.4315 17.4739H19.8831L19.5159 17.8227L19.6552 18.4023L19.2881 18.0422L18.9251 18.4023L19.0602 17.8227L18.693 17.4682H19.153L19.2881 16.8943ZM21.8538 16.8943L21.9931 17.4739H22.4489L22.0817 17.8227L22.221 18.4023L21.8538 18.0422L21.4867 18.4023L21.626 17.8227L21.263 17.4682H21.7146L21.8538 16.8943ZM10.3078 18.346L10.4513 18.9256H10.8986L10.5357 19.2801L10.6749 19.8484L10.3078 19.4995L9.94487 19.8484L10.0799 19.2744L9.71277 18.9199H10.1728L10.3078 18.346ZM12.8736 18.346L13.0128 18.9256H13.4686L13.1015 19.2801L13.2407 19.8484L12.8736 19.4995L12.5064 19.8484L12.6499 19.2744L12.2828 18.9199H12.7301L12.8736 18.346ZM15.4394 18.346L15.5786 18.9256H16.0302L15.6673 19.2801L15.8065 19.8484L15.4394 19.4995L15.0722 19.8484L15.2115 19.2744L14.8443 18.9199H15.3001L15.4394 18.346ZM18.0052 18.346L18.1444 18.9256H18.6002L18.233 19.2801L18.3723 19.8484L18.0052 19.4995L17.638 19.8484L17.7815 19.2744L17.4101 18.9199H17.8617L18.0052 18.346ZM20.571 18.346L20.7102 18.9256H21.1618L20.7988 19.2801L20.9381 19.8484L20.571 19.4995L20.2038 19.8484L20.3431 19.2744L19.9801 18.9199H20.4317L20.571 18.346ZM23.1367 18.346L23.276 18.9256H23.7318L23.3604 19.2801L23.5039 19.8484L23.1367 19.4995L22.7696 19.8484L22.9131 19.2744L22.5417 18.9199H22.9975L23.1367 18.346ZM11.5907 19.8033L11.73 20.3773H12.1899L11.8228 20.7318L11.9621 21.3113L11.5949 20.9512L11.2278 21.3057L11.367 20.7318L11.0041 20.3773H11.4556L11.5907 19.8033ZM14.1565 19.8033L14.3 20.3773H14.7515L14.3801 20.7318L14.5236 21.3113L14.1565 20.9512L13.7893 21.3057L13.9286 20.7318L13.5615 20.3773H14.0172L14.1565 19.8033ZM16.7223 19.8033L16.8615 20.3773H17.3173L16.9502 20.7318L17.0894 21.3113L16.7223 20.9512L16.3551 21.3057L16.4944 20.7318L16.1315 20.3773H16.5788L16.7223 19.8033ZM19.2881 19.8033L19.4315 20.3773H19.8831L19.5159 20.7318L19.6552 21.3113L19.2881 20.9512L18.9251 21.3057L19.0602 20.7318L18.693 20.3773H19.153L19.2881 19.8033ZM21.8538 19.8033L21.9931 20.3773H22.4489L22.0817 20.7318L22.221 21.3113L21.8538 20.9512L21.4867 21.3057L21.626 20.7318L21.263 20.3773H21.7146L21.8538 19.8033ZM10.3078 21.2607L10.4513 21.8346H10.8986L10.5357 22.1891L10.6749 22.763L10.3078 22.4085L9.94487 22.763L10.0799 22.1834L9.71277 21.829H10.1728L10.3078 21.2607ZM12.8736 21.2607L13.0128 21.8346H13.4686L13.1015 22.1891L13.2407 22.763L12.8736 22.4085L12.5064 22.763L12.6499 22.1834L12.2828 21.829H12.7301L12.8736 21.2607ZM15.4394 21.2607L15.5786 21.8346H16.0302L15.6757 22.1891L15.815 22.763L15.4478 22.4085L15.0807 22.763L15.2199 22.1834L14.8528 21.829H15.3086L15.4394 21.2607ZM18.0052 21.2607L18.1444 21.8346H18.6002L18.233 22.1891L18.3723 22.763L18.0052 22.4085L17.638 22.763L17.7815 22.1834L17.4101 21.829H17.8617L18.0052 21.2607ZM20.571 21.2607L20.7102 21.8346H21.1618L20.7988 22.1891L20.9381 22.763L20.571 22.4085L20.2038 22.763L20.3431 22.1834L19.9801 21.829H20.4317L20.571 21.2607ZM23.1367 21.2607L23.276 21.8346H23.7318L23.3604 22.1891L23.5039 22.763L23.1367 22.4085L22.7696 22.763L22.9131 22.1834L22.5417 21.829H22.9975L23.1367 21.2607Z" fill="white"/>
</g>
<rect x="4.82361" y="4.79871" width="35.4109" height="35.4109" rx="17.7054" stroke="white" stroke-width="8.40259"/>
<defs>
<clipPath id="clip0_639_6975">
<rect x="9.0249" y="9" width="27.0083" height="27.0083" rx="13.5042" fill="white"/>
</clipPath>
</defs>
</svg>
